# xmcd
#
# Track frame offsets: 
#        150
#        20072
#        45527
#        68465
#        85612
#        105845
#        127575
#        142032
#        159995
#        176735
#        193422
#        209517
#
# Disc length: 3069 seconds
#
# Revision: 2
# Processed by: cddbd v1.4PL0 Copyright (c) Steve Scherf et al.
# Submitted via: ExactAudioCopy v0.95a3
#
DISCID=9a0bfb0c
DTITLE=The Cache Valley Drifters - Echoes and Reflections
DYEAR=1996
DGENRE=Country
TTITLE0=White Room
TTITLE1=Wake Up In The Morning
TTITLE2=Masters/Dixieland Lady
TTITLE3=Convicts
TTITLE4=Boy In The Bubble
TTITLE5=Green Eyes
TTITLE6=Yacht Crash
TTITLE7=I Thought I Heard You Calling
TTITLE8=Highway Bound
TTITLE9=Opal Eyes
TTITLE10=Joanne
TTITLE11=The Lighthouse
EXTD=
EXTT0=
EXTT1=
EXTT2=
EXTT3=
EXTT4=
EXTT5=
EXTT6=
EXTT7=
EXTT8=
EXTT9=
EXTT10=
EXTT11=
PLAYORDER=
